<svg width="263" height="64" viewBox="0 0 263 64" fill="none" xmlns="http://www.w3.org/2000/svg">
<path d="M19.4697 3.90973C21.504 3.90992 23.1531 5.55901 23.1533 7.59332V12.1988H74.499C77.3348 12.1989 79.107 15.2683 77.6895 17.7242L65.5752 38.7066C64.9171 39.8463 63.7008 40.5484 62.3848 40.5484H30.4805C29.1644 40.5484 27.9481 39.8463 27.29 38.7066L15.1768 17.7242H7.49609C5.46167 17.724 3.8125 16.0751 3.8125 14.0406V7.59332C3.8127 5.55902 5.46179 3.90993 7.49609 3.90973H19.4697Z" fill="#FFB300"/>
<path d="M46.9265 16.4582L64.8227 47.4554H29.0303L46.9265 16.4582Z" stroke="#01897B" stroke-width="6.79232" stroke-linejoin="round"/>
<circle cx="23.7287" cy="56.176" r="3.91422" fill="#01897B"/>
<circle cx="70.2394" cy="56.176" r="3.91422" fill="#01897B"/>
<path d="M100.688 36V9.81818H112.04C114.034 9.81818 115.709 10.0866 117.064 10.6236C118.428 11.1605 119.455 11.919 120.145 12.8991C120.844 13.8793 121.193 15.0341 121.193 16.3636C121.193 17.3267 120.98 18.2045 120.554 18.9972C120.136 19.7898 119.548 20.4545 118.79 20.9915C118.031 21.5199 117.145 21.8864 116.131 22.0909V22.3466C117.256 22.3892 118.278 22.6747 119.199 23.2031C120.119 23.723 120.852 24.4432 121.398 25.3636C121.943 26.2756 122.216 27.3494 122.216 28.5852C122.216 30.017 121.841 31.2912 121.091 32.4077C120.349 33.5241 119.293 34.402 117.92 35.0412C116.548 35.6804 114.912 36 113.011 36H100.688ZM107.795 30.3239H111.119C112.313 30.3239 113.207 30.1023 113.804 29.6591C114.401 29.2074 114.699 28.5426 114.699 27.6648C114.699 27.0511 114.558 26.5312 114.277 26.1051C113.996 25.679 113.595 25.3551 113.075 25.1335C112.564 24.9119 111.946 24.8011 111.222 24.8011H107.795V30.3239ZM107.795 20.4034H110.71C111.332 20.4034 111.882 20.3054 112.359 20.1094C112.837 19.9134 113.207 19.6321 113.472 19.2656C113.744 18.8906 113.881 18.4347 113.881 17.8977C113.881 17.0881 113.591 16.4702 113.011 16.044C112.432 15.6094 111.699 15.392 110.812 15.392H107.795V20.4034ZM131.536 36H123.865L132.507 9.81818H142.223L150.865 36H143.195L137.467 17.0284H137.263L131.536 36ZM130.104 25.6705H144.524V30.9886H130.104V25.6705ZM153.387 36V9.81818H160.495V20.0455H169.904V9.81818H177.012V36H169.904V25.7727H160.495V36H153.387ZM187.188 36H179.517L188.159 9.81818H197.875L206.517 36H198.847L193.12 17.0284H192.915L187.188 36ZM185.756 25.6705H200.176V30.9886H185.756V25.6705ZM231.692 9.81818V36H225.761L216.3 22.2443H216.147V36H209.039V9.81818H215.073L224.38 23.5227H224.585V9.81818H231.692ZM241.856 36H234.185L242.827 9.81818H252.543L261.185 36H253.515L247.788 17.0284H247.583L241.856 36ZM240.424 25.6705H254.844V30.9886H240.424V25.6705Z" fill="#01897B"/>
<path d="M107.911 45.9091H111.068V54.353C111.068 55.3288 110.836 56.179 110.371 56.9034C109.907 57.6236 109.259 58.1818 108.428 58.5781C107.597 58.9702 106.632 59.1662 105.533 59.1662C104.42 59.1662 103.449 58.9702 102.618 58.5781C101.787 58.1818 101.141 57.6236 100.681 56.9034C100.221 56.179 99.9908 55.3288 99.9908 54.353V45.9091H103.155V54.0781C103.155 54.5298 103.253 54.9325 103.449 55.2862C103.649 55.6399 103.928 55.9169 104.286 56.1172C104.644 56.3175 105.06 56.4176 105.533 56.4176C106.006 56.4176 106.419 56.3175 106.773 56.1172C107.131 55.9169 107.41 55.6399 107.61 55.2862C107.81 54.9325 107.911 54.5298 107.911 54.0781V45.9091ZM113.051 45.9091H116.97L120.294 54.0142H120.447L123.771 45.9091H127.689V59H124.608V50.9588H124.499L121.355 58.9169H119.386L116.241 50.9141H116.132V59H113.051V45.9091ZM129.663 59V45.9091H132.827V51.4446H132.999L137.327 45.9091H141.053L136.413 51.7514L141.136 59H137.352L134.092 53.8544L132.827 55.4524V59H129.663ZM142.301 45.9091H146.22L149.544 54.0142H149.697L153.021 45.9091H156.939V59H153.858V50.9588H153.749L150.605 58.9169H148.636L145.491 50.9141H145.382V59H142.301V45.9091ZM162.78 59V45.9091H168.239C169.219 45.9091 170.039 46.0476 170.7 46.3246C171.364 46.6016 171.863 46.9893 172.195 47.4879C172.532 47.9865 172.7 48.5639 172.7 49.2202C172.7 49.7188 172.596 50.1641 172.387 50.5561C172.178 50.9439 171.891 51.2656 171.524 51.5213C171.158 51.777 170.734 51.956 170.252 52.0582V52.1861C170.781 52.2116 171.268 52.3544 171.716 52.6143C172.168 52.8743 172.53 53.2365 172.803 53.701C173.075 54.1612 173.212 54.7067 173.212 55.3374C173.212 56.0405 173.033 56.669 172.675 57.223C172.317 57.7727 171.799 58.2074 171.121 58.527C170.444 58.8423 169.621 59 168.654 59H162.78ZM165.944 56.4496H167.9C168.586 56.4496 169.091 56.3196 169.415 56.0597C169.743 55.7997 169.907 55.4375 169.907 54.973C169.907 54.6364 169.828 54.3466 169.67 54.1037C169.513 53.8565 169.289 53.6669 168.999 53.5348C168.71 53.3984 168.362 53.3303 167.957 53.3303H165.944V56.4496ZM165.944 51.2912H167.695C168.04 51.2912 168.347 51.2337 168.616 51.1186C168.884 51.0036 169.093 50.8374 169.242 50.62C169.396 50.4027 169.472 50.1406 169.472 49.8338C169.472 49.3949 169.317 49.0497 169.006 48.7983C168.695 48.5469 168.275 48.4212 167.746 48.4212H165.944V51.2912ZM174.733 59V45.9091H183.861V48.4787H177.897V51.1634H183.394V53.7393H177.897V56.4304H183.861V59H174.733ZM185.842 59V45.9091H191.25C192.23 45.9091 193.076 46.0859 193.788 46.4396C194.504 46.7891 195.055 47.2919 195.443 47.9482C195.831 48.6001 196.025 49.3736 196.025 50.2685C196.025 51.1761 195.827 51.9474 195.43 52.5824C195.034 53.2131 194.472 53.6946 193.743 54.027C193.014 54.3551 192.151 54.5192 191.154 54.5192H187.734V52.0263H190.566C191.043 52.0263 191.442 51.9645 191.761 51.8409C192.085 51.7131 192.33 51.5213 192.496 51.2656C192.663 51.0057 192.746 50.6733 192.746 50.2685C192.746 49.8636 192.663 49.5291 192.496 49.2649C192.33 48.9964 192.085 48.7962 191.761 48.6641C191.438 48.5277 191.039 48.4595 190.566 48.4595H189.006V59H185.842ZM193.212 53.017L196.472 59H193.021L189.825 53.017H193.212ZM206.351 50.1854C206.279 49.9169 206.172 49.6804 206.032 49.4759C205.891 49.267 205.718 49.0902 205.514 48.9453C205.309 48.8004 205.075 48.6918 204.811 48.6193C204.547 48.5426 204.257 48.5043 203.941 48.5043C203.306 48.5043 202.757 48.6577 202.292 48.9645C201.832 49.2713 201.476 49.7187 201.225 50.3068C200.973 50.8906 200.848 51.6001 200.848 52.4354C200.848 53.2749 200.969 53.9908 201.212 54.5831C201.455 55.1754 201.806 55.6271 202.267 55.9382C202.727 56.2493 203.285 56.4048 203.941 56.4048C204.521 56.4048 205.011 56.3111 205.412 56.1236C205.816 55.9318 206.123 55.6612 206.332 55.3118C206.541 54.9624 206.645 54.5511 206.645 54.0781L207.233 54.1484H204.05V51.8409H209.694V53.5732C209.694 54.745 209.445 55.7486 208.946 56.5838C208.452 57.419 207.77 58.0604 206.901 58.5078C206.036 58.9553 205.041 59.179 203.916 59.179C202.667 59.179 201.57 58.9084 200.624 58.3672C199.678 57.826 198.941 57.0547 198.412 56.0533C197.884 55.0476 197.62 53.8544 197.62 52.4737C197.62 51.3999 197.779 50.4474 198.099 49.6165C198.419 48.7812 198.864 48.0739 199.435 47.4943C200.01 46.9148 200.675 46.4759 201.429 46.1776C202.188 45.8793 203.004 45.7301 203.877 45.7301C204.636 45.7301 205.341 45.8388 205.993 46.0561C206.65 46.2734 207.229 46.5803 207.732 46.9766C208.239 47.3729 208.65 47.8438 208.966 48.3892C209.281 48.9347 209.477 49.5334 209.554 50.1854H206.351ZM211.559 59V45.9091H220.687V48.4787H214.723V51.1634H220.22V53.7393H214.723V56.4304H220.687V59H211.559ZM222.669 59V45.9091H228.076C229.056 45.9091 229.902 46.0859 230.614 46.4396C231.33 46.7891 231.882 47.2919 232.269 47.9482C232.657 48.6001 232.851 49.3736 232.851 50.2685C232.851 51.1761 232.653 51.9474 232.257 52.5824C231.86 53.2131 231.298 53.6946 230.569 54.027C229.84 54.3551 228.977 54.5192 227.98 54.5192H224.561V52.0263H227.392C227.869 52.0263 228.268 51.9645 228.588 51.8409C228.911 51.7131 229.156 51.5213 229.323 51.2656C229.489 51.0057 229.572 50.6733 229.572 50.2685C229.572 49.8636 229.489 49.5291 229.323 49.2649C229.156 48.9964 228.911 48.7962 228.588 48.6641C228.264 48.5277 227.865 48.4595 227.392 48.4595H225.833V59H222.669ZM230.039 53.017L233.298 59H229.847L226.651 53.017H230.039ZM237.418 59H234.018L238.434 45.9091H242.647L247.064 59H243.663L240.589 49.2074H240.486L237.418 59ZM236.964 53.848H244.072V56.2514H236.964V53.848ZM248.473 59V45.9091H251.637V51.4446H251.81L256.137 45.9091H259.864L255.223 51.7514L259.947 59H256.163L252.903 53.8544L251.637 55.4524V59H248.473Z" fill="#00897B"/>
</svg>
